<?xml version="1.0" standalone="no"?>
<!DOCTYPE svg PUBLIC "-//W3C//DTD SVG 20010904//EN"
 "http://www.w3.org/TR/2001/REC-SVG-20010904/DTD/svg10.dtd">
<svg version="1.0" xmlns="http://www.w3.org/2000/svg"
 width="1964.000000pt" height="1964.000000pt" viewBox="0 0 1964.000000 1964.000000"
 preserveAspectRatio="xMidYMid meet">
<metadata>
Created by potrace 1.16, written by Peter Selinger 2001-2019
</metadata>
<g transform="translate(0.000000,1964.000000) scale(0.100000,-0.100000)"
fill="#000000" stroke="none">
<path d="M9545 18293 c-180 -22 -414 -75 -450 -102 -5 -4 -32 -16 -60 -26
-157 -57 -330 -203 -441 -372 -98 -148 -165 -332 -194 -530 l-12 -82 -117 1
c-134 1 -220 -17 -294 -63 -27 -16 -52 -29 -56 -29 -19 0 -97 -98 -129 -163
-32 -64 -36 -83 -40 -166 -8 -171 39 -293 165 -428 42 -46 80 -83 85 -83 5 0
24 -10 41 -23 52 -38 167 -85 240 -99 l67 -13 0 -91 0 -91 -102 -7 c-57 -4
-150 -14 -208 -21 -152 -21 -597 -101 -720 -130 -58 -13 -166 -38 -240 -55
-238 -54 -780 -201 -885 -240 -27 -11 -77 -27 -110 -36 -86 -23 -444 -142
-480 -159 -17 -7 -64 -26 -105 -41 -155 -55 -383 -171 -527 -266 -40 -26 -75
-48 -78 -48 -15 0 -252 -227 -281 -270 -14 -19 -45 -62 -69 -95 -68 -91 -167
-284 -224 -436 -59 -158 -140 -468 -171 -654 -12 -72 -30 -175 -40 -230 -36
-187 -66 -429 -112 -900 -14 -145 -13 -810 1 -950 16 -159 57 -466 76 -565 40
-210 159 -617 222 -762 11 -24 28 -63 39 -88 60 -142 213 -406 274 -475 9 -11
19 -25 21 -32 2 -6 41 -52 85 -100 68 -74 80 -92 72 -107 -8 -14 -7 -17 3 -13
8 2 13 10 11 16 -4 21 16 11 43 -21 15 -18 35 -37 45 -43 10 -5 53 -37 96 -70
44 -34 115 -81 159 -105 44 -24 82 -46 85 -49 5 -7 80 -41 205 -94 107 -46
327 -120 450 -152 55 -14 132 -34 170 -45 100 -28 434 -101 752 -165 725 -145
1543 -243 2308 -275 143 -6 241 -14 243 -20 2 -5 9 -10 16 -10 7 0 23 -11 36
-25 13 -14 28 -25 33 -25 5 0 50 -29 101 -64 117 -81 127 -86 276 -135 69 -23
133 -46 142 -51 10 -6 26 -10 35 -10 16 -1 16 -2 2 -10 -9 -5 -153 -16 -321
-24 -290 -15 -451 -34 -530 -65 -16 -6 -28 -8 -28 -6 0 3 -16 -9 -35 -26 -72
-66 -27 -149 106 -193 155 -51 315 -63 1044 -78 943 -19 1130 -14 1410 38 173
32 200 40 238 74 28 25 31 33 31 84 -1 31 -4 59 -7 62 -9 9 -173 42 -292 59
-55 8 -131 20 -169 25 -38 6 -157 15 -265 21 -108 5 -218 13 -246 17 l-50 8
55 6 c136 16 382 122 558 240 132 89 266 206 314 275 16 24 42 49 57 57 54 28
492 66 1066 91 1324 59 1967 109 2315 180 161 33 313 101 395 177 17 15 33 28
37 28 12 0 84 103 116 166 62 124 79 255 47 377 -19 73 -78 191 -121 241 l-33
39 20 26 c107 138 152 261 152 408 0 93 -15 143 -64 214 -10 14 -20 36 -24 50
-5 21 0 27 41 48 25 14 68 44 94 68 41 37 51 54 76 130 62 189 28 397 -85 532
-66 77 -78 89 -151 140 -80 56 -143 85 -250 116 -80 23 -114 28 -217 28 l-121
1 8 22 c5 13 52 111 105 220 186 378 239 550 239 769 0 106 -3 128 -26 187
-15 37 -45 95 -67 128 -23 34 -41 63 -41 64 0 2 -18 21 -39 44 -28 29 -38 47
-34 62 3 12 0 20 -7 20 -7 0 -10 -7 -6 -15 7 -20 0 -19 -32 4 -73 51 -108 61
-212 61 -115 0 -189 -20 -280 -75 -121 -74 -228 -223 -275 -381 l-18 -61 -47
56 c-116 139 -250 237 -383 281 -89 29 -231 25 -317 -8 -132 -52 -240 -188
-282 -355 -17 -67 -20 -101 -15 -192 7 -146 36 -246 119 -410 42 -84 162 -261
252 -371 25 -31 25 -31 3 -28 -12 2 -200 13 -417 25 -217 11 -396 22 -398 24
-2 2 12 90 32 197 32 177 51 281 120 683 24 140 78 521 96 690 17 151 24 707
11 867 -11 135 -64 473 -97 618 -8 36 -37 134 -65 219 -79 242 -194 454 -328
601 -63 69 -230 220 -245 220 -2 0 -40 21 -83 48 -43 26 -109 61 -148 79 -141
63 -164 73 -171 73 -4 0 -64 18 -133 40 -77 24 -199 52 -311 70 -102 17 -201
35 -220 40 -49 13 -104 18 -355 30 -134 6 -222 15 -226 21 -6 10 -17 98 -35
277 l-7 62 39 0 c58 0 166 26 215 51 85 43 136 95 181 187 41 81 43 90 43 171
-1 76 -5 95 -35 161 -18 41 -47 90 -64 108 -58 63 -190 120 -296 129 l-75 6
-45 125 c-25 70 -45 131 -45 137 0 5 -3 12 -6 15 -3 3 -18 32 -34 65 -16 33
-50 93 -77 133 -26 40 -48 74 -48 77 0 6 -17 27 -95 117 -128 148 -341 282
-523 329 -153 40 -310 56 -417 42z m322 -287 c73 -18 213 -82 278 -126 90 -62
174 -151 239 -254 36 -56 72 -120 80 -143 8 -23 21 -52 29 -65 8 -13 31 -90
51 -173 46 -187 74 -262 101 -269 38 -11 73 -6 139 19 115 43 235 28 292 -36
47 -53 58 -158 23 -215 -39 -63 -191 -113 -360 -118 -47 -2 -90 -5 -96 -9 -36
-22 -50 -300 -24 -492 16 -118 48 -235 69 -252 9 -7 42 -30 72 -50 l55 -38
235 -1 c173 -1 258 -6 320 -18 47 -9 128 -23 180 -31 139 -23 464 -127 605
-195 265 -127 440 -279 517 -450 16 -36 37 -81 45 -100 31 -68 112 -331 137
-447 46 -211 75 -409 87 -580 13 -187 6 -743 -11 -908 -23 -222 -85 -660 -121
-850 -61 -325 -71 -372 -94 -465 -13 -52 -27 -107 -30 -122 l-5 -28 -560 0
-560 0 5 23 c3 12 10 42 16 67 5 25 14 238 19 475 5 237 16 513 24 615 25 304
17 540 -19 580 -21 23 -50 25 -86 8 l-25 -12 -38 -385 c-20 -212 -48 -505 -61
-651 -14 -146 -34 -352 -45 -459 -11 -107 -20 -214 -20 -238 l0 -43 -37 0
c-48 0 -1325 -27 -1908 -40 -893 -20 -1745 -39 -1917 -43 l-177 -4 -22 71
c-27 89 -120 331 -159 412 -17 34 -30 65 -30 69 0 4 -20 53 -44 109 -68 156
-123 309 -165 464 -110 396 -203 708 -227 754 -26 50 -137 50 -173 0 -48 -68
-49 -140 -4 -357 46 -227 205 -782 252 -880 6 -11 29 -76 52 -145 24 -69 46
-127 49 -130 3 -3 19 -41 35 -85 15 -44 38 -103 51 -130 25 -57 64 -153 64
-160 0 -3 -70 -5 -156 -5 -169 0 -201 -8 -223 -57 -35 -77 30 -208 114 -229
13 -3 151 1 307 10 482 27 737 35 1503 46 2242 31 2412 35 2990 71 301 19 390
20 1005 15 522 -5 738 -11 955 -27 545 -38 690 -46 707 -38 23 12 42 103 36
176 -3 49 -13 75 -53 144 -27 46 -57 93 -66 104 -37 41 -139 175 -139 181 0 3
-18 27 -40 52 -23 25 -38 52 -36 59 3 7 1 12 -4 10 -11 -2 -25 19 -74 120 -56
114 -70 175 -71 293 0 160 39 226 139 237 64 8 136 -13 205 -58 62 -40 161
-132 161 -150 0 -6 11 -25 25 -43 13 -17 40 -66 60 -106 19 -41 47 -91 60
-110 38 -53 105 -110 130 -110 21 0 70 31 87 55 13 17 85 208 119 312 42 131
91 225 147 286 53 56 103 83 178 92 l51 7 36 -57 c47 -76 60 -143 55 -285 -4
-103 -9 -128 -47 -240 -52 -152 -151 -353 -272 -555 -10 -16 -37 -66 -60 -110
-23 -44 -47 -87 -54 -95 -7 -8 -20 -36 -30 -62 -16 -44 -16 -49 -1 -73 9 -14
35 -37 58 -53 l42 -27 252 3 c349 4 424 -14 546 -130 126 -119 132 -255 14
-366 -64 -60 -93 -76 -212 -113 -111 -35 -134 -57 -134 -130 0 -26 3 -55 6
-63 4 -9 39 -31 79 -50 105 -49 165 -137 165 -243 0 -81 -35 -137 -159 -254
-90 -85 -101 -99 -101 -130 0 -45 27 -88 86 -135 108 -88 143 -125 158 -171
37 -108 2 -226 -92 -315 -73 -69 -125 -100 -237 -137 -133 -45 -189 -51 -530
-61 -574 -17 -1229 -40 -1410 -50 -99 -5 -245 -12 -325 -15 -80 -4 -248 -15
-375 -25 -126 -11 -288 -22 -359 -26 -122 -7 -129 -6 -122 11 3 10 18 59 32
109 14 50 41 138 59 196 79 250 146 529 137 571 -4 20 -111 26 -667 34 -198 3
-504 10 -680 15 -291 10 -1869 40 -2050 40 -71 0 -76 -2 -87 -25 -8 -18 -8
-44 -1 -93 6 -37 9 -70 7 -74 -2 -3 -43 10 -91 29 -74 31 -94 35 -143 30 -62
-5 -133 -33 -193 -74 -49 -34 -138 -170 -163 -248 -28 -89 -26 -279 4 -356 47
-119 153 -220 272 -257 100 -31 279 -21 436 24 17 4 23 -1 34 -28 7 -18 22
-53 32 -76 11 -24 17 -46 14 -49 -13 -14 -814 40 -1156 76 -47 5 -155 17 -240
26 -621 64 -718 76 -1090 141 -483 84 -996 257 -1249 422 -31 20 -67 42 -81
50 -45 24 -204 159 -269 228 -78 82 -145 172 -178 239 -14 28 -31 57 -39 65
-27 32 -157 337 -149 351 3 4 1 9 -3 11 -16 6 -72 186 -121 388 -76 311 -122
662 -142 1083 -27 585 47 1401 182 1987 50 219 159 503 233 610 17 25 38 57
46 72 15 28 70 97 103 131 10 10 23 15 29 11 7 -5 8 -3 3 5 -9 16 44 73 62 67
16 -7 43 3 43 15 0 6 -10 5 -22 -1 -29 -14 63 72 119 111 23 16 46 29 51 29 6
0 12 3 14 8 12 27 323 186 351 178 9 -2 15 -1 12 4 -2 4 30 22 73 40 104 44
182 70 182 62 0 -4 4 -2 8 3 4 6 34 21 67 34 112 42 320 113 400 137 44 14
130 40 190 59 178 56 476 135 486 129 5 -3 9 -1 9 4 0 5 20 13 46 17 25 3 107
22 182 42 206 53 318 74 837 163 99 17 226 40 283 51 57 11 110 18 118 15 8
-3 14 -2 14 3 0 5 22 11 49 15 27 4 63 11 80 17 31 11 31 12 33 87 3 103 -1
211 -12 367 -6 72 -11 146 -12 166 -1 26 -6 35 -15 32 -7 -3 -20 0 -28 7 -10
8 -62 13 -157 14 -158 2 -186 10 -264 73 -52 42 -104 147 -111 223 -6 70 23
153 72 203 75 77 220 92 417 43 65 -17 120 -27 123 -24 3 3 17 72 30 154 41
245 99 453 140 504 6 8 23 36 38 61 31 54 160 178 214 206 21 10 56 30 78 44
39 24 59 33 174 78 51 20 181 54 246 65 56 9 290 -3 352 -18z m-1068 -8686
c20 -13 30 -28 27 -37 -3 -8 -2 -12 3 -9 13 9 34 -50 27 -77 -8 -33 -50 -75
-91 -93 -77 -32 -224 -5 -240 46 -4 11 -3 40 0 63 8 47 68 111 120 127 48 15
119 6 154 -20z"/>
<path d="M9774 17422 c-17 -11 -32 -26 -33 -33 -11 -70 -11 -135 -1 -159 21
-50 55 -73 106 -73 41 0 51 4 80 35 41 46 59 102 50 162 -9 58 -34 76 -113 83
-46 3 -64 0 -89 -15z"/>
<path d="M9254 17410 c-32 -13 -82 -77 -89 -114 -10 -50 2 -89 38 -131 42 -48
107 -59 150 -25 61 48 89 174 51 228 -31 44 -98 63 -150 42z"/>
<path d="M9902 16856 c-54 -19 -56 -30 -43 -230 15 -223 4 -296 -67 -446 -67
-141 -155 -204 -249 -178 -43 12 -118 79 -143 128 -45 88 -79 247 -100 460
-22 231 -19 217 -43 224 -39 10 -97 6 -126 -8 -62 -32 -85 -117 -70 -261 31
-314 146 -583 297 -698 90 -68 222 -99 334 -79 64 13 165 70 191 111 10 14 33
47 51 73 54 75 113 240 137 380 38 222 14 463 -51 509 -35 24 -79 30 -118 15z"/>
<path d="M10640 11140 c-17 -12 -28 -15 -36 -9 -8 7 -15 6 -20 -2 -4 -7 -3 -9
4 -5 20 12 21 -10 1 -40 -10 -16 -19 -39 -19 -52 0 -23 64 -157 80 -167 5 -3
14 -29 21 -59 10 -48 9 -62 -10 -125 -12 -39 -27 -71 -33 -71 -6 0 -9 -3 -6
-6 4 -3 -10 -40 -30 -82 l-37 -77 0 -145 c0 -157 3 -169 63 -275 78 -135 177
-197 256 -160 90 43 94 126 15 293 -73 156 -73 217 2 403 66 163 77 289 36
389 -63 152 -210 250 -287 190z"/>
<path d="M10078 11114 c-55 -29 -61 -74 -23 -165 14 -32 28 -79 31 -102 8 -53
-14 -142 -56 -230 -74 -156 -92 -261 -70 -408 29 -199 115 -319 230 -319 94 0
129 50 104 147 -9 32 -16 66 -17 76 -1 9 -5 17 -9 17 -13 0 -38 103 -38 160 0
58 34 187 89 339 41 115 47 176 27 260 -21 85 -73 212 -94 229 -22 17 -140 15
-174 -4z"/>
<path d="M11163 11100 c-12 -5 -29 -21 -39 -35 -22 -34 -15 -73 31 -176 51
-112 49 -120 -77 -378 -45 -92 -52 -114 -56 -181 -5 -89 15 -147 84 -243 58
-81 108 -116 162 -117 54 0 77 12 97 50 23 44 18 84 -21 182 -47 114 -45 166
10 288 69 152 79 189 79 275 -1 99 -26 180 -82 260 -53 77 -118 103 -188 75z"/>
<path d="M5325 7095 c-5 -2 -38 -9 -72 -16 -35 -7 -63 -17 -63 -21 0 -4 -9 -8
-20 -8 -11 0 -28 -4 -38 -9 -9 -5 -28 -13 -42 -19 -81 -34 -340 -165 -340
-173 0 -5 -9 -9 -20 -9 -11 0 -20 -4 -20 -10 0 -5 -5 -10 -10 -10 -6 0 -59
-30 -118 -66 -59 -36 -116 -71 -126 -77 -11 -7 -28 -19 -38 -28 -10 -9 -31
-22 -46 -30 -15 -8 -29 -16 -32 -19 -3 -3 -17 -11 -31 -18 -15 -8 -38 -25 -52
-38 -14 -13 -30 -24 -35 -24 -20 0 -160 -156 -168 -187 -4 -13 -10 -23 -15
-23 -5 0 -9 -7 -9 -15 0 -8 -4 -15 -10 -15 -5 0 -10 -7 -10 -15 0 -8 -4 -23
-9 -33 -20 -39 -30 -70 -38 -117 -4 -27 -8 -756 -8 -1620 l0 -1570 829 -3
c657 -2 831 0 838 10 4 7 8 313 8 681 l0 667 395 0 396 0 -1 -670 c-1 -368 1
-674 5 -680 10 -16 1627 -14 1643 2 9 9 12 472 12 2020 l0 2008 -830 0 -830 0
-2 -567 -3 -568 -154 -7 c-85 -4 -159 -12 -165 -18 -5 -5 -23 -10 -38 -10 -16
0 -36 -4 -46 -9 -9 -5 -46 -23 -82 -39 -36 -16 -90 -46 -120 -67 -67 -44 -171
-149 -195 -195 -9 -18 -25 -42 -35 -52 -9 -10 -27 -40 -40 -66 -12 -26 -31
-64 -41 -85 -11 -22 -19 -46 -19 -55 0 -10 -5 -24 -11 -32 -8 -11 -9 -1 -4 35
9 65 22 191 34 340 6 66 15 163 21 215 6 52 15 149 20 215 5 66 14 158 20 205
6 47 13 112 15 145 9 109 37 370 42 385 3 8 7 58 10 111 4 85 2 101 -17 139
-18 35 -19 44 -8 52 10 7 9 11 -6 23 -26 20 -42 19 -26 0 11 -13 10 -14 -6 -8
-10 4 -27 15 -37 24 -24 22 -159 38 -202 24z"/>
<path d="M14526 7036 c6 -15 -24 -26 -76 -26 -44 0 -234 -67 -323 -113 -64
-34 -143 -87 -195 -132 -69 -59 -192 -182 -192 -192 0 -6 -3 -13 -7 -15 -12
-5 -73 -86 -73 -96 0 -5 -9 -17 -20 -27 -11 -10 -20 -22 -20 -28 0 -5 -8 -21
-18 -35 -35 -50 -92 -164 -92 -183 0 -10 -4 -19 -8 -19 -5 0 -17 -25 -27 -55
-11 -30 -21 -53 -23 -51 -4 5 18 125 29 151 4 11 10 40 13 65 5 41 17 119 30
180 5 27 20 123 37 240 5 41 14 86 19 100 5 14 11 55 14 93 l7 67 -774 0 -774
0 -7 -37 c-9 -56 -7 -3976 2 -3991 7 -10 171 -12 788 -10 l779 3 3 643 c1 353
6 642 11 642 4 0 16 -9 26 -20 10 -11 22 -20 27 -20 5 0 24 -11 41 -24 40 -30
164 -96 181 -96 7 0 28 -7 46 -16 33 -17 69 -28 150 -45 208 -45 493 -45 680
1 25 6 57 14 73 17 15 3 30 9 33 14 3 5 14 9 25 9 10 0 27 4 37 9 102 52 171
86 189 95 13 6 23 14 23 19 0 4 5 7 10 7 6 0 16 4 23 10 7 5 32 26 57 46 71
58 130 114 130 124 0 6 4 10 9 10 15 0 81 73 87 97 3 12 12 24 19 26 12 5 75
92 75 105 0 4 9 18 20 32 11 14 20 33 20 42 0 9 4 18 8 20 9 3 52 93 52 108 0
5 9 25 20 45 11 20 20 49 20 65 0 16 5 32 10 35 6 3 10 17 10 29 0 13 7 29 15
36 8 7 15 24 15 38 0 32 20 140 30 167 14 35 25 185 24 340 0 143 -9 234 -34
355 -7 30 -15 73 -20 95 -8 42 -26 97 -41 127 -5 10 -9 31 -9 48 0 16 -9 45
-20 65 -11 20 -20 40 -20 46 0 15 -69 156 -83 171 -7 7 -21 30 -30 51 -10 20
-22 37 -27 37 -6 0 -10 5 -10 11 0 40 -278 319 -318 319 -6 0 -12 4 -14 9 -5
14 -150 88 -218 112 -90 31 -154 40 -303 46 -76 2 -125 8 -122 14 4 5 -1 9 -9
9 -9 0 -13 -6 -10 -14z m-407 -1257 c20 -7 46 -17 59 -22 36 -17 132 -116 132
-137 0 -10 5 -22 10 -25 6 -3 10 -17 10 -30 0 -13 5 -27 10 -30 6 -3 10 -35
10 -71 0 -35 -4 -73 -10 -84 -5 -11 -14 -29 -20 -40 -5 -11 -10 -26 -10 -33 0
-8 -9 -22 -20 -32 -11 -10 -20 -23 -20 -29 0 -14 -103 -86 -122 -86 -8 0 -19
-5 -25 -11 -15 -15 -223 -15 -264 1 -85 32 -139 67 -139 89 0 5 -8 16 -17 23
-17 12 -27 30 -52 91 -15 37 -14 183 2 227 15 44 49 100 59 100 4 0 8 6 8 13
0 8 11 19 25 25 14 6 25 16 25 22 0 5 8 10 18 10 10 0 22 3 26 7 30 30 234 44
305 22z"/>
<path d="M10340 6960 l-495 -5 -3 -22 c-2 -13 -6 -23 -10 -23 -4 0 -13 -15
-20 -32 -7 -18 -18 -41 -23 -50 -5 -10 -9 -24 -9 -32 0 -7 -7 -19 -15 -26 -8
-6 -14 -15 -13 -18 2 -9 -9 -39 -32 -87 -10 -22 -26 -58 -35 -80 -9 -22 -25
-58 -36 -80 -10 -22 -19 -48 -19 -57 0 -10 -3 -18 -7 -18 -9 0 -33 -49 -33
-67 0 -7 -9 -28 -20 -48 -11 -20 -20 -44 -20 -55 0 -11 -3 -20 -8 -20 -9 0
-52 -93 -52 -114 0 -14 38 -16 391 -16 382 0 391 0 396 20 3 11 8 18 12 16 3
-3 45 50 91 116 47 66 91 126 98 133 6 8 12 16 12 20 0 3 13 20 30 38 16 18
30 38 30 45 0 6 5 12 10 12 6 0 10 4 10 10 0 10 13 27 67 89 18 20 35 44 39
54 3 9 10 17 15 17 5 0 9 6 9 14 0 8 4 16 9 18 4 2 20 22 35 46 16 25 31 40
38 36 7 -4 8 -3 4 4 -4 6 14 37 39 69 47 60 59 105 28 101 -10 -2 -241 -5
-513 -8z"/>
<path d="M11131 6148 c-6 -35 -16 -82 -21 -106 -6 -23 -10 -64 -10 -90 0 -26
-4 -52 -9 -57 -5 -6 -12 -32 -14 -60 -10 -87 -39 -280 -44 -285 -2 -2 -7 1
-11 7 -4 6 -26 19 -49 29 -24 10 -43 22 -43 26 0 5 -9 8 -19 8 -11 0 -22 4
-25 9 -3 4 -27 16 -53 25 -26 10 -57 21 -68 26 -11 4 -40 13 -65 20 -25 7 -54
16 -65 20 -26 11 -44 15 -240 51 -256 47 -667 42 -935 -13 -141 -28 -388 -106
-414 -129 -6 -5 -18 -9 -28 -9 -10 0 -18 -4 -18 -8 0 -4 -17 -14 -37 -21 -44
-16 -137 -70 -141 -82 -2 -5 -8 -9 -14 -9 -13 0 -92 -56 -148 -106 -121 -107
-225 -229 -269 -316 -13 -27 -28 -48 -33 -48 -4 0 -8 -8 -8 -17 0 -10 -9 -29
-20 -43 -11 -14 -20 -35 -20 -47 0 -13 -4 -23 -10 -23 -5 0 -10 -7 -10 -15 0
-8 -4 -23 -9 -33 -20 -39 -52 -163 -66 -257 -16 -113 -13 -441 5 -474 5 -11
10 -36 10 -57 0 -70 92 -316 144 -384 7 -8 18 -28 26 -45 36 -73 72 -116 200
-240 70 -68 163 -145 176 -145 2 0 37 -21 77 -48 68 -45 90 -57 155 -83 15 -7
43 -20 62 -29 19 -10 73 -30 120 -45 47 -14 93 -31 102 -36 10 -5 29 -9 43 -9
14 0 33 -4 43 -9 9 -5 51 -15 92 -21 41 -6 95 -16 120 -20 54 -10 275 -25 380
-25 184 0 425 27 580 65 70 17 186 52 225 67 126 49 145 58 145 65 0 5 7 8 15
8 8 0 31 10 52 21 21 12 58 33 83 47 134 75 299 221 390 345 59 81 121 179
136 217 3 8 14 31 24 50 10 19 24 60 31 90 7 30 18 64 25 75 7 11 17 52 23 90
6 39 14 86 17 105 12 65 16 352 4 364 -5 5 -10 26 -10 46 0 43 -25 167 -38
183 -5 7 -15 39 -22 72 -7 33 -22 72 -32 87 -10 14 -18 32 -18 40 0 7 -9 24
-20 38 -11 14 -20 33 -20 43 0 9 -5 17 -12 17 -6 0 -9 3 -5 6 3 4 -5 21 -18
39 -31 40 -31 43 3 47 21 2 28 9 30 31 2 15 7 27 11 27 4 0 14 19 21 43 7 23
21 60 31 82 10 22 24 60 31 85 7 25 18 50 24 55 7 6 18 34 25 63 7 28 16 52
21 52 4 0 8 9 8 19 0 11 5 23 10 26 6 3 10 17 10 31 0 13 3 24 8 24 10 0 32
50 32 72 0 9 8 32 18 50 11 18 25 58 33 88 7 30 19 61 26 68 7 7 13 18 13 23
0 9 33 87 51 121 5 10 9 26 9 36 0 10 5 23 11 29 30 30 -5 33 -405 33 l-403 0
-12 -62z m-1072 -1544 c76 -22 161 -107 161 -161 0 -7 5 -13 10 -13 12 0 13
-104 1 -128 -5 -9 -17 -34 -27 -56 -55 -112 -195 -162 -340 -120 -65 19 -154
99 -154 139 0 13 -4 27 -10 30 -5 3 -10 35 -10 70 0 35 5 67 10 70 6 3 10 16
10 29 0 27 79 112 118 127 77 30 159 35 231 13z"/>
</g>
</svg>
